<mxfile host="" modified="2021-01-02T07:38:11.016Z" agent="5.0 (Windows NT 6.2; Win64; x64) AppleWebKit/537.36 (KHTML, like Gecko) Chrome/84.0.4147.105 Safari/537.36" etag="gAejBXIqe7Xfg9-BA_hA" version="13.7.9" type="embed"><diagram id="o5bim95sLXh1nI_02Df9" name="Page-1"><mxGraphModel dx="785" dy="706" grid="1" gridSize="10" guides="1" tooltips="1" connect="1" arrows="1" fold="1" page="1" pageScale="1" pageWidth="850" pageHeight="1100" math="0" shadow="0"><root><mxCell id="0"/><mxCell id="1" parent="0"/><mxCell id="3" value="" style="rounded=0;whiteSpace=wrap;html=1;" parent="1" vertex="1"><mxGeometry x="250" y="130" width="120" height="260" as="geometry"/></mxCell><mxCell id="7" style="edgeStyle=orthogonalEdgeStyle;rounded=0;orthogonalLoop=1;jettySize=auto;html=1;exitX=1;exitY=0.5;exitDx=0;exitDy=0;entryX=0;entryY=0.5;entryDx=0;entryDy=0;" parent="1" source="6" target="3" edge="1"><mxGeometry relative="1" as="geometry"/></mxCell><mxCell id="6" value="&lt;span style=&quot;font-size: 18px&quot;&gt;app._router&lt;/span&gt;" style="rounded=0;whiteSpace=wrap;html=1;" parent="1" vertex="1"><mxGeometry x="55" y="230" width="120" height="60" as="geometry"/></mxCell><mxCell id="8" value="&lt;font style=&quot;font-size: 18px&quot;&gt;stack&lt;/font&gt;" style="text;html=1;strokeColor=none;fillColor=none;align=center;verticalAlign=middle;whiteSpace=wrap;rounded=0;" parent="1" vertex="1"><mxGeometry x="190" y="232.5" width="40" height="20" as="geometry"/></mxCell><mxCell id="14" value="express内置的 query中间件层" style="rounded=0;whiteSpace=wrap;html=1;" parent="1" vertex="1"><mxGeometry x="265" y="340" width="90" height="40" as="geometry"/></mxCell><mxCell id="15" value="express内置的 init 中间件层" style="rounded=0;whiteSpace=wrap;html=1;" parent="1" vertex="1"><mxGeometry x="265" y="292.5" width="90" height="40" as="geometry"/></mxCell><mxCell id="17" value="用户传入的中间件 M1层" style="rounded=0;whiteSpace=wrap;html=1;" parent="1" vertex="1"><mxGeometry x="265" y="242.5" width="90" height="40" as="geometry"/></mxCell><mxCell id="18" value="用户传入的中间件 M2层" style="rounded=0;whiteSpace=wrap;html=1;" parent="1" vertex="1"><mxGeometry x="265" y="192.5" width="90" height="40" as="geometry"/></mxCell><mxCell id="23" value="" style="edgeStyle=orthogonalEdgeStyle;rounded=0;orthogonalLoop=1;jettySize=auto;html=1;" parent="1" source="19" target="22" edge="1"><mxGeometry relative="1" as="geometry"/></mxCell><mxCell id="19" value="home 路径的路由中间件层" style="rounded=0;whiteSpace=wrap;html=1;" parent="1" vertex="1"><mxGeometry x="265" y="140" width="90" height="40" as="geometry"/></mxCell><mxCell id="22" value="匹配 /home 路径的route对象" style="rounded=0;whiteSpace=wrap;html=1;" parent="1" vertex="1"><mxGeometry x="420" y="100" width="100" height="50" as="geometry"/></mxCell><mxCell id="24" value="" style="rounded=0;whiteSpace=wrap;html=1;" parent="1" vertex="1"><mxGeometry x="580" y="75" width="110" height="155" as="geometry"/></mxCell><mxCell id="26" value="&lt;font style=&quot;font-size: 18px&quot;&gt;stack&lt;/font&gt;" style="text;html=1;strokeColor=none;fillColor=none;align=center;verticalAlign=middle;whiteSpace=wrap;rounded=0;" parent="1" vertex="1"><mxGeometry x="530" y="125" width="40" height="20" as="geometry"/></mxCell><mxCell id="27" value="用户传入的中间件 M3 层" style="rounded=0;whiteSpace=wrap;html=1;" parent="1" vertex="1"><mxGeometry x="590" y="182.5" width="90" height="40" as="geometry"/></mxCell><mxCell id="28" value="用户传入的中间件 M4 层" style="rounded=0;whiteSpace=wrap;html=1;" parent="1" vertex="1"><mxGeometry x="590" y="132.5" width="90" height="40" as="geometry"/></mxCell><mxCell id="29" value="用户传入的中间件 M5 层" style="rounded=0;whiteSpace=wrap;html=1;" parent="1" vertex="1"><mxGeometry x="590" y="85" width="90" height="40" as="geometry"/></mxCell><mxCell id="41" value="用户请求" style="shape=umlActor;verticalLabelPosition=bottom;verticalAlign=top;html=1;" vertex="1" parent="1"><mxGeometry x="100" y="450" width="30" height="60" as="geometry"/></mxCell><mxCell id="43" value="" style="curved=1;endArrow=classic;html=1;entryX=0;entryY=1;entryDx=0;entryDy=0;" edge="1" parent="1" target="3"><mxGeometry width="50" height="50" relative="1" as="geometry"><mxPoint x="140" y="500" as="sourcePoint"/><mxPoint x="240" y="400" as="targetPoint"/><Array as="points"><mxPoint x="220" y="490"/><mxPoint x="170" y="440"/></Array></mxGeometry></mxCell><mxCell id="44" value="node 底层 http 库封装了请求的 req、res 对象" style="text;html=1;strokeColor=none;fillColor=none;align=center;verticalAlign=middle;whiteSpace=wrap;rounded=0;" vertex="1" parent="1"><mxGeometry x="200" y="480" width="130" height="50" as="geometry"/></mxCell><mxCell id="46" value="req，res, next" style="text;html=1;strokeColor=none;fillColor=none;align=center;verticalAlign=middle;whiteSpace=wrap;rounded=0;" vertex="1" parent="1"><mxGeometry x="175" y="410" width="160" height="50" as="geometry"/></mxCell><mxCell id="47" value="访问 /home" style="text;html=1;strokeColor=none;fillColor=none;align=center;verticalAlign=middle;whiteSpace=wrap;rounded=0;" vertex="1" parent="1"><mxGeometry x="70" y="540" width="90" height="20" as="geometry"/></mxCell><mxCell id="49" value="" style="curved=1;endArrow=classic;html=1;exitX=0.978;exitY=0.75;exitDx=0;exitDy=0;exitPerimeter=0;" edge="1" parent="1" source="14"><mxGeometry width="50" height="50" relative="1" as="geometry"><mxPoint x="363" y="370" as="sourcePoint"/><mxPoint x="353" y="310" as="targetPoint"/><Array as="points"><mxPoint x="403" y="360"/><mxPoint x="383" y="330"/><mxPoint x="353" y="310"/></Array></mxGeometry></mxCell><mxCell id="50" value="&lt;b&gt;next()&lt;/b&gt;" style="text;html=1;strokeColor=none;fillColor=none;align=center;verticalAlign=middle;whiteSpace=wrap;rounded=0;" vertex="1" parent="1"><mxGeometry x="410" y="332.5" width="30" height="20" as="geometry"/></mxCell><mxCell id="51" value="" style="curved=1;endArrow=classic;html=1;exitX=0.978;exitY=0.75;exitDx=0;exitDy=0;exitPerimeter=0;" edge="1" parent="1"><mxGeometry width="50" height="50" relative="1" as="geometry"><mxPoint x="353.02" y="312.5" as="sourcePoint"/><mxPoint x="353" y="252.5" as="targetPoint"/><Array as="points"><mxPoint x="403" y="302.5"/><mxPoint x="383" y="272.5"/><mxPoint x="353" y="252.5"/></Array></mxGeometry></mxCell><mxCell id="52" value="&lt;b&gt;next()&lt;/b&gt;" style="text;html=1;strokeColor=none;fillColor=none;align=center;verticalAlign=middle;whiteSpace=wrap;rounded=0;" vertex="1" parent="1"><mxGeometry x="405" y="275" width="40" height="20" as="geometry"/></mxCell><mxCell id="53" value="" style="curved=1;endArrow=classic;html=1;exitX=0.978;exitY=0.75;exitDx=0;exitDy=0;exitPerimeter=0;" edge="1" parent="1"><mxGeometry width="50" height="50" relative="1" as="geometry"><mxPoint x="355.02" y="252.5" as="sourcePoint"/><mxPoint x="355" y="192.5" as="targetPoint"/><Array as="points"><mxPoint x="405" y="242.5"/><mxPoint x="385" y="212.5"/><mxPoint x="355" y="192.5"/></Array></mxGeometry></mxCell><mxCell id="54" value="&lt;b&gt;next()&lt;/b&gt;" style="text;html=1;strokeColor=none;fillColor=none;align=center;verticalAlign=middle;whiteSpace=wrap;rounded=0;" vertex="1" parent="1"><mxGeometry x="407" y="215" width="40" height="20" as="geometry"/></mxCell><mxCell id="55" value="" style="curved=1;endArrow=classic;html=1;exitX=0.978;exitY=0.75;exitDx=0;exitDy=0;exitPerimeter=0;" edge="1" parent="1"><mxGeometry width="50" height="50" relative="1" as="geometry"><mxPoint x="355.02" y="200" as="sourcePoint"/><mxPoint x="355" y="140" as="targetPoint"/><Array as="points"><mxPoint x="405" y="190"/><mxPoint x="385" y="160"/><mxPoint x="355" y="140"/></Array></mxGeometry></mxCell><mxCell id="56" value="&lt;b&gt;next()&lt;/b&gt;" style="text;html=1;strokeColor=none;fillColor=none;align=center;verticalAlign=middle;whiteSpace=wrap;rounded=0;" vertex="1" parent="1"><mxGeometry x="407" y="162.5" width="40" height="20" as="geometry"/></mxCell><mxCell id="58" value="" style="endArrow=classic;html=1;exitX=1;exitY=0.25;exitDx=0;exitDy=0;entryX=0;entryY=0.25;entryDx=0;entryDy=0;" edge="1" parent="1" source="22" target="24"><mxGeometry width="50" height="50" relative="1" as="geometry"><mxPoint x="530" y="120" as="sourcePoint"/><mxPoint x="580" y="70" as="targetPoint"/></mxGeometry></mxCell><mxCell id="59" value="" style="curved=1;endArrow=classic;html=1;exitX=0.978;exitY=0.75;exitDx=0;exitDy=0;exitPerimeter=0;" edge="1" parent="1"><mxGeometry width="50" height="50" relative="1" as="geometry"><mxPoint x="680.02" y="210" as="sourcePoint"/><mxPoint x="680" y="150" as="targetPoint"/><Array as="points"><mxPoint x="730" y="200"/><mxPoint x="710" y="170"/><mxPoint x="680" y="150"/></Array></mxGeometry></mxCell><mxCell id="60" value="&lt;b&gt;next()&lt;/b&gt;" style="text;html=1;strokeColor=none;fillColor=none;align=center;verticalAlign=middle;whiteSpace=wrap;rounded=0;" vertex="1" parent="1"><mxGeometry x="737" y="172.5" width="30" height="20" as="geometry"/></mxCell><mxCell id="61" value="" style="curved=1;endArrow=classic;html=1;exitX=0.978;exitY=0.75;exitDx=0;exitDy=0;exitPerimeter=0;" edge="1" parent="1"><mxGeometry width="50" height="50" relative="1" as="geometry"><mxPoint x="680.02" y="155" as="sourcePoint"/><mxPoint x="680" y="95" as="targetPoint"/><Array as="points"><mxPoint x="730" y="145"/><mxPoint x="710" y="115"/><mxPoint x="680" y="95"/></Array></mxGeometry></mxCell><mxCell id="62" value="&lt;b&gt;next()&lt;/b&gt;" style="text;html=1;strokeColor=none;fillColor=none;align=center;verticalAlign=middle;whiteSpace=wrap;rounded=0;" vertex="1" parent="1"><mxGeometry x="737" y="117.5" width="30" height="20" as="geometry"/></mxCell><mxCell id="63" value="路由对应的中间件一旦被调用就会执行路由栈的中间件，其逻辑和全局路由栈的调用是差不多的&lt;br&gt;本质上就是执行&lt;span class=&quot;token class-name&quot; style=&quot;word-spacing: normal ; text-align: left ; box-sizing: border-box ; color: rgb(248 , 197 , 85)&quot;&gt;Route&lt;/span&gt;&lt;span class=&quot;token punctuation&quot; style=&quot;word-spacing: normal ; text-align: left ; box-sizing: border-box ; color: rgb(204 , 204 , 204)&quot;&gt;.&lt;/span&gt;&lt;span style=&quot;color: rgb(238 , 238 , 238) ; word-spacing: normal ; text-align: left&quot;&gt;prototype&lt;/span&gt;&lt;span class=&quot;token punctuation&quot; style=&quot;word-spacing: normal ; text-align: left ; box-sizing: border-box ; color: rgb(204 , 204 , 204)&quot;&gt;.&lt;/span&gt;&lt;span class=&quot;token function-variable function&quot; style=&quot;word-spacing: normal ; text-align: left ; box-sizing: border-box ; color: rgb(240 , 141 , 73)&quot;&gt;dispatch 方法&lt;/span&gt;" style="text;html=1;strokeColor=none;fillColor=none;align=center;verticalAlign=middle;whiteSpace=wrap;rounded=0;" vertex="1" parent="1"><mxGeometry x="497.5" y="230" width="275" height="77.5" as="geometry"/></mxCell></root></mxGraphModel></diagram></mxfile>